<?xml version="1.0" encoding="UTF-8"?>
<svg id="Calque_1_-_copie" data-name="Calque 1 - copie" xmlns="http://www.w3.org/2000/svg" viewBox="0 0 617.21 388.87">
  <defs>
    <style>
      .cls-1 {
        fill: #ee7168;
      }
    </style>
  </defs>
  <path class="cls-1" d="M144.55,6.9c3.62-9.04,16.34-9.24,20.25-.32l171.43,367.42c5.3,12.09-9.74,20.68-17.41,9.93l-144.47-216.6c-5.19-7.28-16.45-5.63-19.33,2.84l-70.34,206.64c-2.46,7.22-9.24,12.08-16.87,12.08H17.83c-12.61,0-21.23-12.74-16.54-24.44L144.55,6.9Z"/>
  <path class="cls-1" d="M329.17,95.74c4.58-12.86,20.22-14.07,25.48-1.48l137.29,277.51c8.24,13.29-8.65,24.1-16.39,10.83l-123.37-194.93c-3.07-6.24-11.97-7.24-15.75.99l-19.92,43.14c-.28.61-.52,1.24-.76,1.87-4.75,12.1-22.03,12.74-27.49.58l-9.99-20.7,50.91-117.81Z"/>
  <path class="cls-1" d="M494.38,177.61c3.41-9.26,15.05-10.14,18.97-1.07l102.22,199.95c6.14,9.57-6.44,17.37-12.2,7.81l-91.85-140.45c-2.29-4.49-8.91-5.21-11.73.71l-14.83,31.08c-.21.44-.39.9-.57,1.35-3.54,8.72-16.4,9.18-20.47.42l-7.44-14.92,37.9-84.88Z"/>
</svg>